{"title":"Beautiful Creatures 2013 TS XviD AC3 - TODE","uid":8257340,"size":733672361,"categoryP":"video","categoryS":"movies","magnet":"?xt=urn:btih:9f2088603c608c6d649f6d1b613c4db222b15ebe&amp;dn=Beautiful+Creatures+2013+TS+XviD+AC3+-+TODE&amp;tr=udp%3A%2F%2Ftracker.openbittorrent.com%3A80&amp;tr=udp%3A%2F%2Fopen.demonii.com%3A1337&amp;tr=udp%3A%2F%2Ftracker.coppersurfer.tk%3A6969&amp;tr=udp%3A%2F%2Fexodus.desync.com%3A6969","seeders":1,"leechers":0,"uploader":"Gh0stNet","files":3,"time":1363291842,"description":"Director:\nRichard LaGravenese\n\nWriters:\nRichard LaGravenese (screenplay), Kami Garcia (novel)\n\nStars:\nAlice Englert, Viola Davis, Emma Thompson\n\nGenres:\nDrama | Fantasy | Romance\n\nCountry:\nUSA\n\nThanks: MiNiSTRY\n\nFormat                                   : AVI\nFormat/Info                              : Audio Video Interleave\nFile size                                : 700 MiB\nDuration                                 : 1h 57mn\nOverall bit rate                         : 835 Kbps\nWriting application                      : Lavf54.59.103\n\nVideo\nID                                       : 0\nFormat                                   : MPEG-4 Visual\nFormat profile                           : Simple@L3\nFormat settings, BVOP                    : No\nFormat settings, QPel                    : No\nFormat settings, GMC                     : No warppoints\nFormat settings, Matrix                  : Default (H.263)\nCodec ID                                 : XVID\nCodec ID/Hint                            : XviD\nDuration                                 : 1h 57mn\nBit rate                                 : 760 Kbps\nWidth                                    : 640 pixels\nHeight                                   : 272 pixels\nDisplay aspect ratio                     : 2.35:1\nFrame rate                               : 25.000 fps\nColor space                              : YUV\nChroma subsampling                       : 4:2:0\nBit depth                                : 8 bits\nScan type                                : Progressive\nCompression mode                         : Lossy\nBits/(Pixel*Frame)                       : 0.175\nStream size                              : 637 MiB (91%)\nWriting library                          : XviD 64\n\nAudio\nID                                       : 1\nFormat                                   : AC-3\nFormat/Info                              : Audio Coding 3\nMode extension                           : CM (complete main)\nFormat settings, Endianness              : Big\nCodec ID                                 : 2000\nDuration                                 : 1h 57mn\nBit rate mode                            : Constant\nBit rate                                 : 64.0 Kbps\nChannel(s)                               : 2 channels\nChannel positions                        : Front: L R\nSampling rate                            : 48.0 KHz\nBit depth                                : 16 bits\nCompression mode                         : Lossy\nStream size                              : 53.6 MiB (8%)\nAlignment                                : Aligned on interleaves\nInterleave, duration                     : 32 ms (0.80 video frame)\n\nScreens: &lt;a href=&quot;\nhttp://i.imgur.com/aVBEk3Z.png&quot; rel=&quot;nofollow&quot; target=&quot;_NEW&quot;&gt;\nhttp://i.imgur.com/aVBEk3Z.png&lt;/a&gt; &lt;a href=&quot;\nhttp://i.imgur.com/VyevyG6.png&quot; rel=&quot;nofollow&quot; target=&quot;_NEW&quot;&gt;\nhttp://i.imgur.com/VyevyG6.png&lt;/a&gt; &lt;a href=&quot;\nhttp://i.imgur.com/R87li08.png&quot; rel=&quot;nofollow&quot; target=&quot;_NEW&quot;&gt;\nhttp://i.imgur.com/R87li08.png&lt;/a&gt; &lt;a href=&quot;\nhttp://i.imgur.com/07uYVdV.png&quot; rel=&quot;nofollow&quot; target=&quot;_NEW&quot;&gt;\nhttp://i.imgur.com/07uYVdV.png&lt;/a&gt; &lt;a href=&quot;\nhttp://i.imgur.com/un3pweN.png&quot; rel=&quot;nofollow&quot; target=&quot;_NEW&quot;&gt;\nhttp://i.imgur.com/un3pweN.png&lt;/a&gt;","torrent":{"xt":"urn:btih:9f2088603c608c6d649f6d1b613c4db222b15ebe","amp;dn":"Beautiful+Creatures+2013+TS+XviD+AC3+-+TODE","amp;tr":["udp%3A%2F%2Ftracker.openbittorrent.com%3A80","udp%3A%2F%2Fopen.demonii.com%3A1337","udp%3A%2F%2Ftracker.coppersurfer.tk%3A6969","udp%3A%2F%2Fexodus.desync.com%3A6969"],"infoHash":"9f2088603c608c6d649f6d1b613c4db222b15ebe","infoHashBuffer":{"type":"Buffer","data":[159,32,136,96,60,96,140,109,100,159,109,27,97,60,77,178,34,177,94,190]},"announce":[],"urlList":[]}}